<svg width="48" height="50" viewBox="0 0 48 50" fill="none" xmlns="http://www.w3.org/2000/svg">
<path d="M42.942 39.0926C38.568 45.3086 31.481 49.0176 23.988 49.0176C17.763 49.0176 11.911 46.5326 7.50902 42.0176C3.10702 37.5026 0.684021 31.5006 0.684021 25.1156C0.684021 18.7296 3.10702 12.7276 7.50902 8.21362C11.911 3.69862 17.763 1.21362 23.989 1.21362C31.484 1.21362 38.569 4.92262 42.942 11.1376C43.2254 11.5405 43.3409 12.0378 43.2642 12.5243C43.1875 13.0108 42.9246 13.4485 42.531 13.7446C42.338 13.8879 42.1181 13.9908 41.8844 14.0473C41.6507 14.1037 41.4081 14.1125 41.1709 14.0731C40.9338 14.0337 40.707 13.947 40.5041 13.818C40.3012 13.6891 40.1264 13.5206 39.99 13.3226C36.297 8.07762 30.316 4.94862 23.986 4.94862C13.144 4.94862 4.32302 13.9956 4.32302 25.1156C4.32302 36.2356 13.143 45.2826 23.986 45.2826C30.313 45.2826 36.296 42.1496 39.989 36.9076C40.1255 36.7096 40.3004 36.5411 40.5034 36.4121C40.7064 36.2832 40.9333 36.1965 41.1706 36.1572C41.4079 36.1179 41.6506 36.1268 41.8843 36.1834C42.1181 36.24 42.338 36.3431 42.531 36.4866C43.347 37.0896 43.531 38.2566 42.942 39.0926Z" fill="url(#paint0_linear_1065_41)"/>
<path d="M23.988 16.2446C26.315 16.2446 28.5 17.2026 30.146 18.9436C30.844 19.6856 31.998 19.7026 32.721 18.9836C33.0688 18.6345 33.2675 18.164 33.2749 17.6712C33.2824 17.1784 33.0981 16.7021 32.761 16.3426C30.425 13.8686 27.309 12.5056 23.988 12.5056C17.21 12.5056 11.699 18.1606 11.699 25.1096C11.699 32.0576 17.213 37.7126 23.988 37.7126C27.309 37.7126 30.425 36.3506 32.761 33.8766C33.461 33.1346 33.442 31.9536 32.721 31.2356C32.5513 31.0653 32.349 30.9309 32.1262 30.8405C31.9034 30.7502 31.6647 30.7057 31.4243 30.7097C31.1839 30.7137 30.9468 30.7662 30.7272 30.8639C30.5075 30.9617 30.3099 31.1027 30.146 31.2786C28.502 33.0186 26.316 33.9776 23.988 33.9776C19.22 33.9776 15.338 29.9996 15.338 25.1066C15.338 20.2136 19.22 16.2436 23.988 16.2436V16.2446Z" fill="url(#paint1_linear_1065_41)"/>
<path d="M44.6059 27.0146C44.1088 26.5075 43.8318 25.8247 43.8349 25.1146C43.8349 24.3996 44.1109 23.7246 44.6059 23.2156L46.7559 21.0256C47.0992 20.6721 47.292 20.1992 47.2936 19.7064C47.2953 19.2137 47.1058 18.7395 46.7649 18.3836C46.5988 18.2097 46.3993 18.071 46.1783 17.976C45.9573 17.8811 45.7194 17.8317 45.4789 17.8308C45.2383 17.83 45.0001 17.8777 44.7784 17.9712C44.5568 18.0646 44.3563 18.2018 44.1889 18.3746L42.0389 20.5656C41.2998 21.316 40.7574 22.2372 40.4599 23.2476H23.9899C22.9849 23.2476 22.1689 24.0846 22.1689 25.1156C22.1689 26.1456 22.9849 26.9836 23.9899 26.9836H40.4599C40.7589 27.9931 41.3011 28.9137 42.0389 29.6646L44.1889 31.8556C44.5439 32.2166 45.0089 32.3986 45.4729 32.3986C45.7142 32.398 45.953 32.349 46.1749 32.2543C46.3969 32.1597 46.5975 32.0214 46.7649 31.8476C47.1065 31.4921 47.2965 31.0178 47.2948 30.5248C47.2931 30.0318 47.0999 29.5588 46.7559 29.2056L44.6059 27.0156V27.0146Z" fill="url(#paint2_linear_1065_41)"/>
<defs>
<linearGradient id="paint0_linear_1065_41" x1="0.684021" y1="25.1156" x2="43.2873" y2="25.1156" gradientUnits="userSpaceOnUse">
<stop stop-color="#ACD22D"/>
<stop offset="1" stop-color="#139C3C"/>
</linearGradient>
<linearGradient id="paint1_linear_1065_41" x1="11.699" y1="25.1091" x2="33.2752" y2="25.1091" gradientUnits="userSpaceOnUse">
<stop stop-color="#0C72AD"/>
<stop offset="1" stop-color="#0F3E76"/>
</linearGradient>
<linearGradient id="paint2_linear_1065_41" x1="22.1689" y1="25.1147" x2="47.2948" y2="25.1147" gradientUnits="userSpaceOnUse">
<stop stop-color="#0C72AD"/>
<stop offset="1" stop-color="#0F3E76"/>
</linearGradient>
</defs>
</svg>
