<svg width="52" height="52" viewBox="0 0 52 52" fill="none" xmlns="http://www.w3.org/2000/svg">
<path d="M29.948 51.6067H12.13C5.54202 51.6067 0.184021 46.2477 0.184021 39.6607V12.5837C0.184021 5.9967 5.54202 0.637695 12.129 0.637695H30.347C30.6085 0.637695 30.8674 0.689194 31.1089 0.789251C31.3505 0.889308 31.57 1.03596 31.7549 1.22085C31.9398 1.40573 32.0864 1.62521 32.1865 1.86677C32.2865 2.10833 32.338 2.36723 32.338 2.6287C32.338 2.89016 32.2865 3.14906 32.1865 3.39062C32.0864 3.63218 31.9398 3.85166 31.7549 4.03655C31.57 4.22143 31.3505 4.36808 31.1089 4.46814C30.8674 4.5682 30.6085 4.6197 30.347 4.6197H12.129C7.73902 4.6197 4.16602 8.1927 4.16602 12.5837V39.6607C4.16602 44.0507 7.73802 47.6247 12.129 47.6247H29.949C34.339 47.6247 37.912 44.0517 37.912 39.6607V27.7147C37.912 27.1866 38.1218 26.6802 38.4952 26.3068C38.8686 25.9335 39.375 25.7237 39.903 25.7237C40.4311 25.7237 40.9375 25.9335 41.3109 26.3068C41.6843 26.6802 41.894 27.1866 41.894 27.7147V39.6607C41.894 46.2477 36.536 51.6067 29.949 51.6067H29.948Z" fill="url(#paint0_linear_1065_9)"/>
<path d="M49.024 2.7666C46.191 -0.0664043 41.581 -0.0664043 38.747 2.7666L32.663 8.8496C30.6504 10.8588 29.2798 13.4204 28.725 16.2096L27.597 21.8496C27.5324 22.1711 27.5483 22.5035 27.6431 22.8174C27.738 23.1313 27.909 23.4169 28.1409 23.6487C28.3727 23.8806 28.6583 24.0516 28.9722 24.1465C29.2861 24.2413 29.6185 24.2572 29.94 24.1926L35.58 23.0646C38.3692 22.5093 40.9308 21.1384 42.94 19.1256L49.023 13.0426C51.857 10.2106 51.857 5.5996 49.024 2.7666ZM46.209 10.2266L40.125 16.3106C38.6718 17.7669 36.8188 18.7588 34.801 19.1606L32.089 19.7026L32.631 16.9896C33.0324 14.9717 34.0244 13.1186 35.481 11.6656L41.564 5.5826C41.8678 5.27633 42.2294 5.03349 42.6279 4.86817C43.0263 4.70285 43.4536 4.61836 43.885 4.6196C44.3167 4.61831 44.7443 4.70278 45.1431 4.86809C45.5419 5.0334 45.9038 5.27627 46.208 5.5826C46.514 5.88672 46.7566 6.24857 46.9218 6.64716C47.0869 7.04575 47.1713 7.47315 47.17 7.9046C47.17 8.7816 46.829 9.6076 46.209 10.2276V10.2266Z" fill="url(#paint1_linear_1065_9)"/>
<path d="M31.939 35.6788H10.236C9.97453 35.6788 9.71563 35.6273 9.47407 35.5272C9.23251 35.4272 9.01303 35.2805 8.82815 35.0956C8.64326 34.9107 8.49661 34.6913 8.39655 34.4497C8.29649 34.2081 8.245 33.9492 8.245 33.6878C8.245 33.4263 8.29649 33.1674 8.39655 32.9259C8.49661 32.6843 8.64326 32.4648 8.82815 32.2799C9.01303 32.095 9.23251 31.9484 9.47407 31.8483C9.71563 31.7483 9.97453 31.6968 10.236 31.6968H31.937C32.1985 31.6968 32.4574 31.7483 32.6989 31.8483C32.9405 31.9484 33.16 32.095 33.3448 32.2799C33.5297 32.4648 33.6764 32.6843 33.7764 32.9259C33.8765 33.1674 33.928 33.4263 33.928 33.6878C33.928 33.9492 33.8765 34.2081 33.7764 34.4497C33.6764 34.6913 33.5297 34.9107 33.3448 35.0956C33.16 35.2805 32.9405 35.4272 32.6989 35.5272C32.4574 35.6273 32.1985 35.6788 31.937 35.6788H31.939ZM21.188 39.1628C20.528 39.1628 19.895 39.425 19.4284 39.8916C18.9617 40.3583 18.6995 40.9913 18.6995 41.6513C18.6995 42.3113 18.9617 42.9442 19.4284 43.4109C19.895 43.8776 20.528 44.1398 21.188 44.1398C21.848 44.1398 22.4809 43.8776 22.9476 43.4109C23.4143 42.9442 23.6765 42.3113 23.6765 41.6513C23.6765 40.9913 23.4143 40.3583 22.9476 39.8916C22.4809 39.425 21.848 39.1628 21.188 39.1628Z" fill="url(#paint2_linear_1065_9)"/>
<defs>
<linearGradient id="paint0_linear_1065_9" x1="0.184021" y1="26.1222" x2="41.894" y2="26.1222" gradientUnits="userSpaceOnUse">
<stop stop-color="#ACD22D"/>
<stop offset="1" stop-color="#139C3C"/>
</linearGradient>
<linearGradient id="paint1_linear_1065_9" x1="27.558" y1="12.4367" x2="51.1486" y2="12.4367" gradientUnits="userSpaceOnUse">
<stop stop-color="#0C72AD"/>
<stop offset="1" stop-color="#0F3E76"/>
</linearGradient>
<linearGradient id="paint2_linear_1065_9" x1="8.245" y1="37.9183" x2="33.928" y2="37.9183" gradientUnits="userSpaceOnUse">
<stop stop-color="#0C72AD"/>
<stop offset="1" stop-color="#0F3E76"/>
</linearGradient>
</defs>
</svg>
