<svg width="64" height="65" viewBox="0 0 64 65" fill="none" xmlns="http://www.w3.org/2000/svg">
<path d="M53.987 49.2007C53.987 49.1787 54 49.1597 54 49.1377V5.1377C54 4.34205 53.6839 3.57898 53.1213 3.01638C52.5587 2.45377 51.7957 2.1377 51 2.1377H13C12.2044 2.1377 11.4413 2.45377 10.8787 3.01638C10.3161 3.57898 10 4.34205 10 5.1377V59.1377C10 59.9333 10.3161 60.6964 10.8787 61.259C11.4413 61.8216 12.2044 62.1377 13 62.1377H41C41.2651 62.1371 41.5192 62.0318 41.707 61.8447L53.707 49.8447C53.7906 49.7597 53.8583 49.6605 53.907 49.5517C53.921 49.5207 53.929 49.4897 53.94 49.4577C53.9675 49.3746 53.9833 49.2881 53.987 49.2007ZM12 59.1377V5.1377C12 4.87248 12.1054 4.61813 12.2929 4.43059C12.4804 4.24305 12.7348 4.1377 13 4.1377H51C51.2652 4.1377 51.5196 4.24305 51.7071 4.43059C51.8946 4.61813 52 4.87248 52 5.1377V48.1377H43C42.2043 48.1377 41.4413 48.4538 40.8787 49.0164C40.3161 49.579 40 50.342 40 51.1377V60.1377H13C12.7348 60.1377 12.4804 60.0323 12.2929 59.8448C12.1054 59.6573 12 59.4029 12 59.1377ZM42 58.7237V51.1377C42 50.8725 42.1054 50.6181 42.2929 50.4306C42.4804 50.243 42.7348 50.1377 43 50.1377H50.586L42 58.7237Z" fill="url(#paint0_linear_857_134)"/>
<path d="M23 22.1377H19C18.7348 22.1377 18.4804 22.0323 18.2929 21.8448C18.1054 21.6573 18 21.4029 18 21.1377C18 20.8725 17.8946 20.6181 17.7071 20.4306C17.5196 20.2431 17.2652 20.1377 17 20.1377C16.7348 20.1377 16.4804 20.2431 16.2929 20.4306C16.1054 20.6181 16 20.8725 16 21.1377C16 21.9333 16.3161 22.6964 16.8787 23.259C17.4413 23.8216 18.2044 24.1377 19 24.1377H20V25.1377C20 25.4029 20.1054 25.6573 20.2929 25.8448C20.4804 26.0323 20.7348 26.1377 21 26.1377C21.2652 26.1377 21.5196 26.0323 21.7071 25.8448C21.8946 25.6573 22 25.4029 22 25.1377V24.1377H23C23.7956 24.1377 24.5587 23.8216 25.1213 23.259C25.6839 22.6964 26 21.9333 26 21.1377V19.1377C26 18.342 25.6839 17.579 25.1213 17.0164C24.5587 16.4538 23.7956 16.1377 23 16.1377H19C18.7348 16.1377 18.4804 16.0323 18.2929 15.8448C18.1054 15.6573 18 15.4029 18 15.1377V13.1377C18 12.8725 18.1054 12.6181 18.2929 12.4306C18.4804 12.2431 18.7348 12.1377 19 12.1377H23C23.2652 12.1377 23.5196 12.2431 23.7071 12.4306C23.8946 12.6181 24 12.8725 24 13.1377C24 13.4029 24.1054 13.6573 24.2929 13.8448C24.4804 14.0323 24.7348 14.1377 25 14.1377C25.2652 14.1377 25.5196 14.0323 25.7071 13.8448C25.8946 13.6573 26 13.4029 26 13.1377C26 12.342 25.6839 11.579 25.1213 11.0164C24.5587 10.4538 23.7956 10.1377 23 10.1377H22V9.1377C22 8.87248 21.8946 8.61813 21.7071 8.43059C21.5196 8.24305 21.2652 8.1377 21 8.1377C20.7348 8.1377 20.4804 8.24305 20.2929 8.43059C20.1054 8.61813 20 8.87248 20 9.1377V10.1377H19C18.2044 10.1377 17.4413 10.4538 16.8787 11.0164C16.3161 11.579 16 12.342 16 13.1377V15.1377C16 15.9333 16.3161 16.6964 16.8787 17.259C17.4413 17.8216 18.2044 18.1377 19 18.1377H23C23.2652 18.1377 23.5196 18.2431 23.7071 18.4306C23.8946 18.6181 24 18.8725 24 19.1377V21.1377C24 21.4029 23.8946 21.6573 23.7071 21.8448C23.5196 22.0323 23.2652 22.1377 23 22.1377ZM31 13.1377H47C47.2652 13.1377 47.5196 13.0323 47.7071 12.8448C47.8946 12.6573 48 12.4029 48 12.1377C48 11.8725 47.8946 11.6181 47.7071 11.4306C47.5196 11.2431 47.2652 11.1377 47 11.1377H31C30.7348 11.1377 30.4804 11.2431 30.2929 11.4306C30.1054 11.6181 30 11.8725 30 12.1377C30 12.4029 30.1054 12.6573 30.2929 12.8448C30.4804 13.0323 30.7348 13.1377 31 13.1377ZM31 21.1377H47C47.2652 21.1377 47.5196 21.0323 47.7071 20.8448C47.8946 20.6573 48 20.4029 48 20.1377C48 19.8725 47.8946 19.6181 47.7071 19.4306C47.5196 19.2431 47.2652 19.1377 47 19.1377H31C30.7348 19.1377 30.4804 19.2431 30.2929 19.4306C30.1054 19.6181 30 19.8725 30 20.1377C30 20.4029 30.1054 20.6573 30.2929 20.8448C30.4804 21.0323 30.7348 21.1377 31 21.1377ZM31 29.1377H47C47.2652 29.1377 47.5196 29.0323 47.7071 28.8448C47.8946 28.6573 48 28.4029 48 28.1377C48 27.8725 47.8946 27.6181 47.7071 27.4306C47.5196 27.2431 47.2652 27.1377 47 27.1377H31C30.7348 27.1377 30.4804 27.2431 30.2929 27.4306C30.1054 27.6181 30 27.8725 30 28.1377C30 28.4029 30.1054 28.6573 30.2929 28.8448C30.4804 29.0323 30.7348 29.1377 31 29.1377ZM17 37.1377H47C47.2652 37.1377 47.5196 37.0323 47.7071 36.8448C47.8946 36.6573 48 36.4029 48 36.1377C48 35.8725 47.8946 35.6181 47.7071 35.4306C47.5196 35.2431 47.2652 35.1377 47 35.1377H17C16.7348 35.1377 16.4804 35.2431 16.2929 35.4306C16.1054 35.6181 16 35.8725 16 36.1377C16 36.4029 16.1054 36.6573 16.2929 36.8448C16.4804 37.0323 16.7348 37.1377 17 37.1377ZM47 45.1377C47.2652 45.1377 47.5196 45.0323 47.7071 44.8448C47.8946 44.6573 48 44.4029 48 44.1377C48 43.8725 47.8946 43.6181 47.7071 43.4306C47.5196 43.243 47.2652 43.1377 47 43.1377H17C16.7348 43.1377 16.4804 43.243 16.2929 43.4306C16.1054 43.6181 16 43.8725 16 44.1377C16 44.4029 16.1054 44.6573 16.2929 44.8448C16.4804 45.0323 16.7348 45.1377 17 45.1377H47Z" fill="url(#paint1_linear_857_134)"/>
<defs>
<linearGradient id="paint0_linear_857_134" x1="10" y1="32.1377" x2="54" y2="32.1377" gradientUnits="userSpaceOnUse">
<stop stop-color="#ACD22D"/>
<stop offset="1" stop-color="#139C3C"/>
</linearGradient>
<linearGradient id="paint1_linear_857_134" x1="16" y1="26.6377" x2="48" y2="26.6377" gradientUnits="userSpaceOnUse">
<stop stop-color="#ACD22D"/>
<stop offset="1" stop-color="#139C3C"/>
</linearGradient>
</defs>
</svg>
