<svg width="48" height="49" viewBox="0 0 48 49" fill="none" xmlns="http://www.w3.org/2000/svg">
<g clip-path="url(#clip0_1065_31)">
<path d="M2.05598 21.9878C2.55262 21.5044 3.14346 21.1284 3.79171 20.8832C4.43996 20.6381 5.13175 20.529 5.82398 20.5628C6.82085 20.6203 7.77718 20.9772 8.56798 21.5868L19.2 29.7318C19.206 29.7348 19.208 29.7378 19.211 29.7408C20.4624 30.7191 22.0056 31.2498 23.594 31.2481C25.1825 31.2465 26.7246 30.7126 27.974 29.7318L38.614 21.5818C39.4047 20.9738 40.3602 20.618 41.356 20.5608C42.048 20.5267 42.7395 20.6356 43.3875 20.8808C44.0355 21.126 44.6259 21.5021 45.122 21.9858C45.6209 22.4714 46.0165 23.0528 46.2849 23.6952C46.5534 24.3376 46.6891 25.0276 46.684 25.7238V36.7828C46.684 42.8838 41.828 47.8478 35.859 47.8478H11.324C5.35499 47.8478 0.498984 42.8838 0.498984 36.7828V25.7228C0.492778 25.0275 0.627547 24.3382 0.895153 23.6964C1.16276 23.0546 1.55765 22.4737 2.05598 21.9888V21.9878ZM4.10598 36.7858C4.10598 40.8538 7.34398 44.1618 11.321 44.1618H35.859C39.839 44.1618 43.074 40.8518 43.074 36.7858V25.7238C43.074 25.1958 42.838 24.8568 42.639 24.6638C42.3641 24.398 41.9983 24.2467 41.616 24.2408C41.292 24.2408 41.008 24.3578 40.773 24.5348L30.147 32.6748C28.2733 34.1366 25.965 34.9306 23.5885 34.9306C21.212 34.9306 18.9037 34.1366 17.03 32.6748L6.40998 24.5378C6.18813 24.3611 5.91709 24.2574 5.63398 24.2408C5.24098 24.2208 4.83398 24.3748 4.54098 24.6608C4.39971 24.7983 4.28813 24.9633 4.21314 25.1456C4.13815 25.3279 4.10134 25.5237 4.10498 25.7208V36.7858H4.10598Z" fill="url(#paint0_linear_1065_31)"/>
<path d="M19.08 20.5558C19.08 19.5388 19.89 18.7118 20.885 18.7118H30.627C31.623 18.7118 32.432 19.5378 32.432 20.5558C32.432 21.5738 31.622 22.4008 30.627 22.4008H20.885C19.889 22.4008 19.08 21.5738 19.08 20.5558ZM14.57 13.4578C14.57 12.4388 15.38 11.6128 16.375 11.6128H30.627C31.623 11.6128 32.432 12.4388 32.432 13.4568C32.432 14.4748 31.622 15.3018 30.627 15.3018H16.375C15.376 15.3018 14.57 14.4748 14.57 13.4568V13.4578Z" fill="url(#paint1_linear_1065_31)"/>
<path d="M4.828 15.1157V11.7027C4.828 5.6017 9.684 0.637695 15.653 0.637695H31.349C37.318 0.637695 42.174 5.6017 42.174 11.7027V15.1157C42.174 16.1337 41.365 16.9597 40.369 16.9597C39.374 16.9597 38.565 16.1337 38.565 15.1157V11.7027C38.565 7.6347 35.327 4.3267 31.349 4.3267H15.652C11.672 4.3267 8.437 7.63669 8.437 11.7027V15.1157C8.437 16.1337 7.628 16.9597 6.633 16.9597C5.637 16.9597 4.828 16.1337 4.828 15.1157Z" fill="url(#paint2_linear_1065_31)"/>
</g>
<defs>
<linearGradient id="paint0_linear_1065_31" x1="0.498779" y1="34.2012" x2="46.6841" y2="34.2012" gradientUnits="userSpaceOnUse">
<stop stop-color="#0C72AD"/>
<stop offset="1" stop-color="#0F3E76"/>
</linearGradient>
<linearGradient id="paint1_linear_1065_31" x1="14.57" y1="17.0068" x2="32.432" y2="17.0068" gradientUnits="userSpaceOnUse">
<stop stop-color="#0C72AD"/>
<stop offset="1" stop-color="#0F3E76"/>
</linearGradient>
<linearGradient id="paint2_linear_1065_31" x1="4.828" y1="8.7987" x2="42.174" y2="8.7987" gradientUnits="userSpaceOnUse">
<stop stop-color="#ACD22D"/>
<stop offset="1" stop-color="#139C3C"/>
</linearGradient>
<clipPath id="clip0_1065_31">
<rect width="47" height="48" fill="white" transform="translate(0.5 0.637695)"/>
</clipPath>
</defs>
</svg>
