<svg width="58" height="58" viewBox="0 0 58 58" fill="none" xmlns="http://www.w3.org/2000/svg">
<g clip-path="url(#clip0_862_103)">
<path d="M46.3542 28.2419H42.7708C42.5332 28.2419 42.3054 28.3362 42.1374 28.5042C41.9694 28.6722 41.875 28.9001 41.875 29.1377C41.875 29.3753 41.9694 29.6031 42.1374 29.7711C42.3054 29.9391 42.5332 30.0335 42.7708 30.0335H44.5625V31.8252C44.5625 32.0628 44.6569 32.2906 44.8249 32.4586C44.9929 32.6266 45.2207 32.721 45.4583 32.721C45.6959 32.721 45.9238 32.6266 46.0918 32.4586C46.2598 32.2906 46.3542 32.0628 46.3542 31.8252V30.0335C47.0669 30.0335 47.7505 29.7504 48.2545 29.2464C48.7585 28.7424 49.0417 28.0588 49.0417 27.346V25.5543C49.0417 24.8416 48.7585 24.158 48.2545 23.654C47.7505 23.15 47.0669 22.8669 46.3542 22.8669H44.5625C44.3249 22.8669 44.097 22.7725 43.929 22.6045C43.761 22.4365 43.6667 22.2086 43.6667 21.971V20.1793C43.6667 19.9418 43.761 19.7139 43.929 19.5459C44.097 19.3779 44.3249 19.2835 44.5625 19.2835H48.1458C48.3834 19.2835 48.6113 19.1891 48.7793 19.0211C48.9473 18.8531 49.0417 18.6253 49.0417 18.3877C49.0417 18.1501 48.9473 17.9222 48.7793 17.7542C48.6113 17.5862 48.3834 17.4918 48.1458 17.4918H46.3542V15.7002C46.3542 15.4626 46.2598 15.2347 46.0918 15.0667C45.9238 14.8987 45.6959 14.8043 45.4583 14.8043C45.2207 14.8043 44.9929 14.8987 44.8249 15.0667C44.6569 15.2347 44.5625 15.4626 44.5625 15.7002V17.4918C43.8497 17.4918 43.1662 17.775 42.6621 18.279C42.1581 18.783 41.875 19.4666 41.875 20.1793V21.971C41.875 22.6838 42.1581 23.3674 42.6621 23.8714C43.1662 24.3754 43.8497 24.6585 44.5625 24.6585H46.3542C46.5918 24.6585 46.8196 24.7529 46.9876 24.9209C47.1556 25.0889 47.25 25.3168 47.25 25.5543V27.346C47.25 27.5836 47.1556 27.8115 46.9876 27.9795C46.8196 28.1475 46.5918 28.2419 46.3542 28.2419ZM54.8825 41.8585L36.5 43.394V41.1992C36.5065 39.8487 36.0741 38.5326 35.2679 37.4491C34.4617 36.3656 33.3253 35.5734 32.0298 35.1917L18.4794 31.1282C18.3266 30.5591 17.9909 30.0559 17.5241 29.6962C17.0573 29.3366 16.4851 29.1403 15.8958 29.1377H1.56249C1.3249 29.1377 1.09704 29.2321 0.92904 29.4001C0.761039 29.5681 0.666656 29.7959 0.666656 30.0335L0.666656 49.7419C0.666656 49.9794 0.761039 50.2073 0.92904 50.3753C1.09704 50.5433 1.3249 50.6377 1.56249 50.6377H15.8958C16.4076 50.6361 16.9083 50.4883 17.339 50.2119C17.7697 49.9355 18.1125 49.5418 18.3271 49.0771L32.63 53.3682C34.5737 53.9545 36.6514 53.9232 38.5765 53.2786L56.0292 47.4611C56.6986 47.2396 57.2636 46.7802 57.6169 46.17C57.9701 45.5597 58.0872 44.841 57.9458 44.1502C57.8044 43.4594 57.4144 42.8444 56.8498 42.422C56.2851 41.9996 55.5851 41.7991 54.8825 41.8585ZM11.4167 48.846H2.45832V30.9294H11.4167V48.846ZM16.7917 47.9502C16.7917 48.1878 16.6973 48.4156 16.5293 48.5836C16.3613 48.7516 16.1334 48.846 15.8958 48.846H13.2083V30.9294H15.8958C16.1334 30.9294 16.3613 31.0237 16.5293 31.1917C16.6973 31.3597 16.7917 31.5876 16.7917 31.8252V47.9502ZM55.4648 45.759L38.0104 51.5765C36.4353 52.1049 34.7349 52.1312 33.1442 51.6518L18.5833 47.2837V33.0292L31.5156 36.9081C32.4405 37.1815 33.2517 37.7476 33.8274 38.5214C34.4031 39.2951 34.7122 40.2348 34.7083 41.1992V43.0428L26.9791 39.9504C26.869 39.902 26.7504 39.8762 26.6302 39.8746C26.5099 39.873 26.3906 39.8956 26.2793 39.9411C26.168 39.9865 26.067 40.054 25.9824 40.1393C25.8977 40.2246 25.831 40.3261 25.7864 40.4378C25.7418 40.5494 25.7201 40.6689 25.7226 40.7891C25.7251 40.9093 25.7518 41.0278 25.801 41.1374C25.8503 41.2471 25.9212 41.3457 26.0093 41.4274C26.0975 41.5092 26.2013 41.5723 26.3144 41.6131L35.2727 45.1964H35.296C35.3395 45.2081 35.3838 45.2165 35.4286 45.2215C35.487 45.2388 35.547 45.2502 35.6077 45.2555C35.6185 45.2555 35.6275 45.2555 35.6382 45.2466C35.649 45.2376 35.6669 45.2466 35.683 45.2466L55.033 43.6341C55.299 43.6097 55.5647 43.6842 55.7793 43.8435C55.9938 44.0027 56.1421 44.2354 56.1957 44.4972C56.2494 44.7589 56.2047 45.0312 56.0702 45.262C55.9357 45.4928 55.7208 45.6659 55.4666 45.7482L55.4648 45.759ZM45.4583 36.3044C47.9388 36.3044 50.3636 35.5688 52.4261 34.1907C54.4886 32.8126 56.0961 30.8539 57.0453 28.5622C57.9946 26.2705 58.2429 23.7488 57.759 21.3159C57.2751 18.8831 56.0806 16.6484 54.3266 14.8944C52.5726 13.1404 50.3379 11.9459 47.9051 11.462C45.4722 10.9781 42.9505 11.2264 40.6588 12.1757C38.3672 13.1249 36.4084 14.7324 35.0303 16.7949C33.6522 18.8574 32.9167 21.2822 32.9167 23.7627C32.9205 27.0878 34.243 30.2756 36.5942 32.6268C38.9454 34.978 42.1332 36.3006 45.4583 36.3044ZM45.4583 13.0127C47.5845 13.0127 49.6629 13.6432 51.4307 14.8244C53.1985 16.0056 54.5764 17.6845 55.39 19.6488C56.2037 21.6131 56.4166 23.7746 56.0018 25.8599C55.587 27.9452 54.5631 29.8607 53.0597 31.3641C51.5563 32.8675 49.6409 33.8913 47.5556 34.3061C45.4703 34.7209 43.3088 34.508 41.3445 33.6944C39.3802 32.8807 37.7013 31.5029 36.52 29.7351C35.3388 27.9672 34.7083 25.8888 34.7083 23.7627C34.7116 20.9126 35.8453 18.1802 37.8606 16.1649C39.8759 14.1497 42.6083 13.016 45.4583 13.0127Z" fill="url(#paint0_linear_862_103)"/>
</g>
<defs>
<linearGradient id="paint0_linear_862_103" x1="0.666656" y1="32.5036" x2="58.0042" y2="32.5036" gradientUnits="userSpaceOnUse">
<stop stop-color="#0C72AD"/>
<stop offset="1" stop-color="#0F3E76"/>
</linearGradient>
<clipPath id="clip0_862_103">
<rect width="57.3333" height="57.3333" fill="white" transform="translate(0.666656 0.471008)"/>
</clipPath>
</defs>
</svg>
