<svg width="54" height="53" viewBox="0 0 54 53" fill="none" xmlns="http://www.w3.org/2000/svg">
<path d="M39.2301 43.031H12.1361C5.54606 43.031 0.185059 37.671 0.185059 31.081V14.741C0.184059 8.15104 5.54606 2.79004 12.1371 2.79004H21.1021C21.6304 2.79004 22.137 2.99991 22.5106 3.37348C22.8842 3.74705 23.0941 4.25373 23.0941 4.78204C23.0941 5.31035 22.8842 5.81702 22.5106 6.1906C22.137 6.56417 21.6304 6.77404 21.1021 6.77404H12.1371C7.74306 6.77404 4.16806 10.349 4.16806 14.744V31.08C4.16806 35.473 7.74206 39.047 12.1351 39.047H39.2301C43.6241 39.047 47.2001 35.472 47.2001 31.078V28.388C47.2001 27.8597 47.4099 27.3531 47.7835 26.9795C48.1571 26.6059 48.6637 26.396 49.1921 26.396C49.7204 26.396 50.227 26.6059 50.6006 26.9795C50.9742 27.3531 51.1841 27.8597 51.1841 28.388V31.078C51.1841 37.669 45.8221 43.031 39.2311 43.031H39.2301Z" fill="url(#paint0_linear_739_1062)"/>
<path d="M47.382 3.88C44.904 1.379 41.585 0 38.036 0C34.511 0 31.196 1.387 28.702 3.905C27.4756 5.13349 26.5065 6.59423 25.8515 8.20173C25.1964 9.80924 24.8685 11.5312 24.887 13.267V24.305C24.8868 24.6992 25.0036 25.0846 25.2226 25.4125C25.4416 25.7403 25.7529 25.9957 26.1172 26.1465C26.4815 26.2972 26.8823 26.3365 27.2689 26.2594C27.6555 26.1822 28.0105 25.992 28.289 25.713L28.469 25.533C28.9399 25.0605 29.5475 24.7481 30.2058 24.64C30.8641 24.532 31.5397 24.6338 32.137 24.931C33.9513 25.8361 35.9524 26.3039 37.98 26.297H37.993C41.49 26.297 44.784 24.95 47.269 22.505C48.4981 21.3011 49.4768 19.866 50.1489 18.2822C50.821 16.6985 51.1731 14.9974 51.185 13.277C51.218 9.727 49.867 6.39 47.382 3.881V3.88ZM37.989 22.312H37.979C36.5676 22.3179 35.1744 21.9932 33.911 21.364C32.3494 20.5848 30.5568 20.4037 28.871 20.855V13.258V13.239C28.8575 12.0282 29.0859 10.8269 29.5429 9.70562C29.9998 8.5843 30.6761 7.56551 31.532 6.709C32.3801 5.84477 33.3923 5.15858 34.5092 4.69065C35.626 4.22272 36.8251 3.98248 38.036 3.984C40.513 3.984 42.826 4.944 44.551 6.684C45.4065 7.54518 46.0814 8.56847 46.5363 9.6939C46.9912 10.8193 47.2168 12.0242 47.2 13.238C47.15 18.244 43.021 22.313 37.989 22.313V22.312Z" fill="url(#paint1_linear_739_1062)"/>
<path d="M37.238 49.0081C37.238 47.9081 36.347 47.0161 35.246 47.0161H16.121C15.5927 47.0161 15.086 47.226 14.7125 47.5996C14.3389 47.9731 14.129 48.4798 14.129 49.0081C14.129 49.5364 14.3389 50.0431 14.7125 50.4167C15.086 50.7902 15.5927 51.0001 16.121 51.0001H35.246C36.346 51.0001 37.238 50.1081 37.238 49.0081Z" fill="url(#paint2_linear_739_1062)"/>
<defs>
<linearGradient id="paint0_linear_739_1062" x1="0.185059" y1="22.9105" x2="51.1841" y2="22.9105" gradientUnits="userSpaceOnUse">
<stop stop-color="#ACD22D"/>
<stop offset="1" stop-color="#139C3C"/>
</linearGradient>
<linearGradient id="paint1_linear_739_1062" x1="24.8862" y1="13.1489" x2="51.1856" y2="13.1489" gradientUnits="userSpaceOnUse">
<stop stop-color="#0C72AD"/>
<stop offset="1" stop-color="#0F3E76"/>
</linearGradient>
<linearGradient id="paint2_linear_739_1062" x1="14.129" y1="49.0081" x2="37.238" y2="49.0081" gradientUnits="userSpaceOnUse">
<stop stop-color="#0C72AD"/>
<stop offset="1" stop-color="#0F3E76"/>
</linearGradient>
</defs>
</svg>
