<svg width="62" height="61" viewBox="0 0 62 61" fill="none" xmlns="http://www.w3.org/2000/svg">
<g clip-path="url(#clip0_862_110)">
<path d="M50.9982 28.5434C50.4204 28.5434 49.8663 28.3177 49.4577 27.9158C49.0491 27.5139 48.8196 26.9689 48.8196 26.4006V20.3491C48.8196 11.7777 40.7676 4.92057 30.8682 4.92057C20.9687 4.92057 12.9167 11.8634 12.9167 20.3491V26.4006C12.9167 26.9689 12.6872 27.5139 12.2787 27.9158C11.8701 28.3177 11.316 28.5434 10.7382 28.5434C10.1604 28.5434 9.60625 28.3177 9.19769 27.9158C8.78913 27.5139 8.5596 26.9689 8.5596 26.4006V20.3491C8.5596 9.44628 18.581 0.566284 30.8682 0.566284C43.1553 0.566284 53.1767 9.44628 53.1767 20.3491V26.4006C53.1791 26.6826 53.1243 26.9623 53.0156 27.2233C52.907 27.4843 52.7466 27.7215 52.5438 27.9209C52.3411 28.1203 52.1 28.2781 51.8346 28.385C51.5693 28.4918 51.2849 28.5457 50.9982 28.5434Z" fill="url(#paint0_linear_862_110)"/>
<path d="M45.1073 48.7034C44.5295 48.7034 43.9754 48.4776 43.5668 48.0758C43.1583 47.6739 42.9287 47.1289 42.9287 46.5606V26.212C42.9469 25.6556 43.1844 25.128 43.591 24.7409C43.9976 24.3537 44.5414 24.1374 45.1073 24.1377C52.619 24.1377 58.7365 29.6748 58.7365 36.4634C58.7365 43.252 52.619 48.7034 45.1073 48.7034ZM47.2859 28.5777V44.1948C49.1933 43.8842 50.9352 42.9412 52.2224 41.5223C53.5096 40.1034 54.2645 38.2941 54.3619 36.3948C54.2684 34.4926 53.5152 32.6793 52.2277 31.2569C50.9401 29.8345 49.1961 28.889 47.2859 28.5777ZM16.5593 48.7034C9.04761 48.7034 2.93018 43.1834 2.93018 36.3948C2.93018 29.6063 9.04761 24.1377 16.5593 24.1377C17.1371 24.1377 17.6912 24.3635 18.0998 24.7653C18.5084 25.1672 18.7379 25.7122 18.7379 26.2806V46.5606C18.7379 47.1289 18.5084 47.6739 18.0998 48.0758C17.6912 48.4776 17.1371 48.7034 16.5593 48.7034ZM14.3807 28.5777C12.4706 28.889 10.7265 29.8345 9.43898 31.2569C8.15146 32.6793 7.39823 34.4926 7.30475 36.3948C7.4021 38.2941 8.15707 40.1034 9.44426 41.5223C10.7314 42.9412 12.4734 43.8842 14.3807 44.1948V28.5777Z" fill="url(#paint1_linear_862_110)"/>
<path d="M44.3928 55.6806H37.1773C36.5995 55.6806 36.0454 55.4548 35.6368 55.0529C35.2283 54.6511 34.9987 54.106 34.9987 53.5377C34.9987 52.9694 35.2283 52.4243 35.6368 52.0225C36.0454 51.6206 36.5995 51.3949 37.1773 51.3949H44.3928C45.5206 51.3949 46.6023 50.9542 47.3998 50.1697C48.1973 49.3853 48.6453 48.3214 48.6453 47.212V46.2691C48.6453 45.7008 48.8748 45.1558 49.2834 44.7539C49.692 44.352 50.2461 44.1263 50.8239 44.1263C51.4017 44.1263 51.9558 44.352 52.3644 44.7539C52.7729 45.1558 53.0025 45.7008 53.0025 46.2691V47.212C53.0025 49.458 52.0954 51.612 50.4807 53.2002C48.8661 54.7883 46.6762 55.6806 44.3928 55.6806Z" fill="url(#paint2_linear_862_110)"/>
<path d="M33.4476 59.7091H29.1427C27.5619 59.7091 26.0458 59.0914 24.928 57.9919C23.8102 56.8924 23.1822 55.4012 23.1822 53.8463V53.6063C23.1868 52.0543 23.8168 50.5675 24.9341 49.4717C26.0515 48.3759 27.5649 47.7606 29.1427 47.7606H33.4476C35.0238 47.7606 36.5355 48.3764 37.65 49.4727C38.7646 50.569 39.3907 52.0559 39.3907 53.6063V53.8463C39.3908 55.3982 38.7652 56.8869 37.6511 57.9859C36.537 59.0849 35.0254 59.7046 33.4476 59.7091ZM29.1776 52.0463C28.7553 52.0462 28.3501 52.2101 28.0499 52.5021C27.7497 52.7942 27.5788 53.191 27.5742 53.6063V53.8463C27.5742 54.2646 27.7431 54.6657 28.0438 54.9615C28.3445 55.2573 28.7523 55.4234 29.1776 55.4234H33.4476C33.8698 55.4189 34.2732 55.2507 34.5701 54.9555C34.8671 54.6602 35.0336 54.2616 35.0336 53.8463V53.6063C35.0336 53.1925 34.8665 52.7957 34.5691 52.5032C34.2716 52.2106 33.8682 52.0463 33.4476 52.0463H29.1776Z" fill="url(#paint3_linear_862_110)"/>
</g>
<defs>
<linearGradient id="paint0_linear_862_110" x1="8.5596" y1="14.5549" x2="53.1768" y2="14.5549" gradientUnits="userSpaceOnUse">
<stop stop-color="#ACD22D"/>
<stop offset="1" stop-color="#139C3C"/>
</linearGradient>
<linearGradient id="paint1_linear_862_110" x1="2.93018" y1="36.4206" x2="58.7365" y2="36.4206" gradientUnits="userSpaceOnUse">
<stop stop-color="#ACD22D"/>
<stop offset="1" stop-color="#139C3C"/>
</linearGradient>
<linearGradient id="paint2_linear_862_110" x1="34.9987" y1="49.9034" x2="53.0025" y2="49.9034" gradientUnits="userSpaceOnUse">
<stop stop-color="#ACD22D"/>
<stop offset="1" stop-color="#139C3C"/>
</linearGradient>
<linearGradient id="paint3_linear_862_110" x1="23.1822" y1="53.7348" x2="39.3907" y2="53.7348" gradientUnits="userSpaceOnUse">
<stop stop-color="#ACD22D"/>
<stop offset="1" stop-color="#139C3C"/>
</linearGradient>
<clipPath id="clip0_862_110">
<rect width="61" height="60" fill="white" transform="translate(0.333313 0.137695)"/>
</clipPath>
</defs>
</svg>
